<svg width="63" height="62" viewBox="0 0 63 62" fill="none" xmlns="http://www.w3.org/2000/svg">
<path d="M28.8352 40.4038C28.9266 40.4938 29.0351 40.5651 29.1545 40.6138C29.274 40.6625 29.402 40.6876 29.5313 40.6876C29.6605 40.6876 29.7885 40.6625 29.908 40.6138C30.0274 40.5651 30.1359 40.4938 30.2273 40.4038L44.0086 26.8413C44.1 26.7514 44.1725 26.6446 44.222 26.527C44.2715 26.4095 44.2969 26.2835 44.2969 26.1563C44.2969 26.0291 44.2715 25.9031 44.222 25.7855C44.1725 25.668 44.1 25.5612 44.0086 25.4713L41.0555 22.565C40.964 22.475 40.8555 22.4037 40.7361 22.355C40.6167 22.3063 40.4887 22.2812 40.3594 22.2812C40.2301 22.2812 40.1021 22.3063 39.9827 22.355C39.8632 22.4037 39.7547 22.475 39.6633 22.565L29.5313 32.5362L26.2898 29.3463C26.1984 29.2563 26.0899 29.1849 25.9705 29.1362C25.851 29.0876 25.723 29.0625 25.5938 29.0625C25.4645 29.0625 25.3365 29.0876 25.217 29.1362C25.0976 29.1849 24.9891 29.2563 24.8977 29.3463L21.9446 32.2525C21.8531 32.3425 21.7806 32.4493 21.7312 32.5668C21.6817 32.6843 21.6562 32.8103 21.6562 32.9375C21.6562 33.0648 21.6817 33.1907 21.7312 33.3083C21.7806 33.4258 21.8531 33.5326 21.9446 33.6226L28.8352 40.4038ZM25.5938 31.4013L28.8352 34.5913C28.9266 34.6813 29.0351 34.7526 29.1545 34.8013C29.274 34.85 29.402 34.8751 29.5313 34.8751C29.6605 34.8751 29.7885 34.85 29.908 34.8013C30.0274 34.7526 30.1359 34.6813 30.2273 34.5913L40.3594 24.6201L41.9204 26.1563L29.5313 38.3487L24.0328 32.9375L25.5938 31.4013Z" fill="white"/>
<path d="M19.4762 52.8696C25.2759 58.7012 31.048 59.9889 31.2909 60.0409C31.4288 60.0705 31.5715 60.0705 31.7093 60.0409C31.9522 59.9889 37.7243 58.7012 43.524 52.8696C46.9057 49.4693 49.5971 45.2165 51.5234 40.2301C53.9131 34.0425 55.125 26.7001 55.125 18.4063C55.125 18.2501 55.0866 18.0961 55.013 17.9577C54.9395 17.8192 54.833 17.7003 54.7027 17.6111L32.0621 2.11108C31.8971 1.99815 31.701 1.93762 31.5 1.93762C31.299 1.93762 31.1029 1.99815 30.9379 2.11108L8.2973 17.6111C8.16696 17.7003 8.06049 17.8192 7.98696 17.9577C7.91342 18.0961 7.87501 18.2501 7.875 18.4063C7.875 26.7001 9.08689 34.0425 11.4768 40.2296C13.4031 45.2165 16.0945 49.4688 19.4762 52.8696ZM31.5 4.08636L53.1547 18.9114C53.107 26.7219 51.9511 33.6298 49.7172 39.452C47.9026 44.1811 45.3761 48.2084 42.2075 51.4223C37.4099 56.2884 32.5484 57.81 31.4985 58.0945C30.4513 57.8143 25.6715 56.3287 20.8831 51.5139C17.6922 48.305 15.1466 44.2771 13.3171 39.5412C11.0606 33.6997 9.89297 26.7618 9.84535 18.9114L31.5 4.08636Z" fill="white"/>
<path d="M22.56 49.0348C25.9865 52.6434 29.4098 54.273 31.1454 54.9232C31.3721 55.0081 31.6228 55.0076 31.8492 54.9219C33.4952 54.298 36.7436 52.7617 40.0062 49.481C42.9114 46.5606 45.2383 42.8682 46.9226 38.5078C48.8544 33.5067 49.9446 27.5957 50.1623 20.9404C50.1676 20.779 50.1317 20.6188 50.0581 20.4744C49.9844 20.3301 49.8752 20.2062 49.7405 20.1139L32.0621 8.01147C31.8971 7.89854 31.701 7.83801 31.5 7.83801C31.299 7.83801 31.1029 7.89854 30.9379 8.01147L13.2595 20.1143C13.1248 20.2065 13.0156 20.3305 12.9419 20.4748C12.8683 20.6191 12.8324 20.7793 12.8377 20.9408C13.049 27.4002 14.0825 33.1617 15.9093 38.0651C17.5225 42.3949 19.7601 46.0858 22.56 49.0348ZM31.5 9.98687L48.1754 21.4031C47.9264 27.629 46.8863 33.1492 45.0823 37.8198C43.495 41.9289 41.3137 45.3964 38.5993 48.1258C35.8172 50.9231 33.072 52.3325 31.4936 52.9754C29.8342 52.3054 26.9336 50.8032 23.9986 47.7119C21.3794 44.9534 19.2798 41.4834 17.7578 37.3981C16.0526 32.8208 15.0664 27.442 14.8246 21.4031L31.5 9.98687Z" fill="white"/>
</svg>
