<svg width="58" height="58" viewBox="0 0 58 58" fill="none" xmlns="http://www.w3.org/2000/svg">
<g clip-path="url(#clip0_1_240)">
<path d="M29 6.76672C25.941 6.76672 22.9507 7.67383 20.4072 9.37333C17.8637 11.0728 15.8813 13.4884 14.7107 16.3146C13.54 19.1407 13.2337 22.2505 13.8305 25.2508C14.4273 28.251 15.9004 31.0069 18.0634 33.17C20.2265 35.333 22.9824 36.8061 25.9826 37.4029C28.9828 37.9997 32.0927 37.6934 34.9188 36.5227C37.745 35.3521 40.1606 33.3697 41.8601 30.8262C43.5596 28.2827 44.4667 25.2924 44.4667 22.2334C44.4618 18.1329 42.8307 14.2017 39.9312 11.3022C37.0317 8.40266 33.1005 6.77158 29 6.76672ZM29 35.7667C26.3234 35.7667 23.7068 34.973 21.4813 33.4859C19.2557 31.9989 17.5211 29.8853 16.4968 27.4124C15.4725 24.9395 15.2045 22.2184 15.7267 19.5932C16.2489 16.968 17.5378 14.5565 19.4305 12.6639C21.3232 10.7712 23.7346 9.48228 26.3598 8.9601C28.985 8.43791 31.7061 8.70591 34.179 9.73022C36.6519 10.7545 38.7655 12.4891 40.2526 14.7147C41.7396 16.9402 42.5333 19.5568 42.5333 22.2334C42.5295 25.8215 41.1024 29.2615 38.5653 31.7987C36.0281 34.3358 32.5881 35.7629 29 35.7667Z" fill="white"/>
<path d="M32.7497 16.3164L25.1333 23.9356C24.5737 23.4579 23.8565 23.2051 23.121 23.2262C22.3855 23.2473 21.684 23.5407 21.1526 24.0497C20.6089 24.5935 20.3035 25.331 20.3035 26.1C20.3035 26.869 20.6089 27.6065 21.1526 28.1503L23.0859 30.0837C23.6334 30.6208 24.3697 30.9218 25.1367 30.9218C25.9037 30.9218 26.6401 30.6208 27.1875 30.0837L36.8542 20.417C37.3824 19.87 37.6747 19.1375 37.6681 18.3771C37.6615 17.6167 37.3565 16.8894 36.8188 16.3517C36.2812 15.814 35.5538 15.509 34.7934 15.5024C34.0331 15.4958 33.3005 15.7881 32.7536 16.3164H32.7497ZM35.4834 19.0501L25.8168 28.7168C25.633 28.8932 25.3881 28.9917 25.1333 28.9917C24.8786 28.9917 24.6337 28.8932 24.4499 28.7168L22.5166 26.7835C22.3405 26.6011 22.2431 26.357 22.2453 26.1035C22.2475 25.85 22.3491 25.6076 22.5284 25.4284C22.7076 25.2491 22.95 25.1475 23.2035 25.1453C23.4569 25.1431 23.7011 25.2405 23.8834 25.4166L24.4499 25.9831C24.6312 26.1643 24.877 26.2661 25.1333 26.2661C25.3897 26.2661 25.6355 26.1643 25.8168 25.9831L34.1166 17.6832C34.2989 17.5072 34.5431 17.4097 34.7965 17.4119C35.05 17.4141 35.2924 17.5158 35.4717 17.695C35.6509 17.8743 35.7526 18.1167 35.7548 18.3702C35.757 18.6236 35.6595 18.8678 35.4834 19.0501Z" fill="white"/>
<path d="M49.764 18.4904L47.7582 17.69C47.2901 15.7475 46.5199 13.8905 45.4759 12.1868L46.3246 10.1993C46.4904 9.8293 46.5491 9.4202 46.4941 9.01847C46.4391 8.61675 46.2725 8.23851 46.0133 7.92669C45.6605 7.50232 45.2555 7.05669 44.717 6.50376C44.1834 5.98369 43.7368 5.57866 43.3231 5.23549C43.0111 4.973 42.6317 4.80331 42.2281 4.74573C41.8245 4.68814 41.4128 4.74496 41.0398 4.90972L39.0514 5.75942C37.346 4.71592 35.4874 3.94675 33.5433 3.48002L32.741 1.47129C32.5923 1.09647 32.3441 0.769363 32.0232 0.525248C31.7022 0.281132 31.3207 0.129275 30.9198 0.0860561C29.646 -0.0280343 28.3646 -0.0280343 27.0908 0.0860561C26.6876 0.127435 26.3033 0.278272 25.9796 0.522254C25.6559 0.766235 25.405 1.09408 25.2542 1.47032L24.4567 3.48002C22.5142 3.9483 20.6572 4.71843 18.9534 5.76232L16.965 4.90876C16.5951 4.74292 16.1862 4.68418 15.7846 4.7392C15.383 4.79423 15.0049 4.96081 14.6933 5.22002C14.267 5.57286 13.8233 5.97886 13.2704 6.51536C12.7503 7.04896 12.3443 7.49556 12.0031 7.90929C11.7395 8.22085 11.569 8.60034 11.511 9.00432C11.453 9.40829 11.51 9.82042 11.6754 10.1935L12.5251 12.182C11.4807 13.8874 10.71 15.746 10.2409 17.69L8.23213 18.4933C7.85809 18.6427 7.53192 18.8913 7.28882 19.2124C7.04573 19.5336 6.89493 19.915 6.8527 20.3155C6.73863 21.5886 6.73863 22.8694 6.8527 24.1425C6.89346 24.546 7.04405 24.9305 7.28812 25.2543C7.53218 25.5782 7.86036 25.8289 8.23697 25.9792L10.2418 26.7806C10.7111 28.7229 11.4815 30.5798 12.5251 32.2838L11.6764 34.2713C11.5112 34.6407 11.4528 35.049 11.5076 35.45C11.5624 35.8509 11.7284 36.2285 11.9867 36.54C12.3395 36.9663 12.7455 37.41 13.283 37.963C13.8156 38.483 14.2622 38.889 14.6759 39.2312C14.7098 39.2602 14.7513 39.2747 14.7871 39.3018L9.90737 50.5267C9.71645 50.9797 9.64058 51.4729 9.68653 51.9623C9.73249 52.4518 9.89883 52.9222 10.1707 53.3317C10.4426 53.7413 10.8117 54.0772 11.2449 54.3095C11.6781 54.5418 12.1621 54.6632 12.6537 54.6631H16.8007C16.8533 54.6625 16.9055 54.6724 16.9543 54.6921C17.0031 54.7118 17.0475 54.7411 17.0849 54.7781L19.4426 57.13C19.7856 57.4728 20.2069 57.7268 20.6701 57.8702C21.1333 58.0135 21.6245 58.042 22.1011 57.953C22.5778 57.864 23.0256 57.6603 23.4058 57.3594C23.7861 57.0585 24.0874 56.6696 24.2836 56.2262L29 45.8365L33.7115 56.2088C33.905 56.6547 34.2048 57.0464 34.5846 57.3497C34.9644 57.6531 35.4127 57.8587 35.8904 57.9488C36.0727 57.9834 36.2578 58.0005 36.4433 58C37.2339 58.0009 37.9925 57.688 38.5526 57.13L40.9142 54.7781C40.9898 54.705 41.0912 54.6647 41.1964 54.666H45.3434C45.8359 54.6662 46.3208 54.5443 46.7546 54.3112C47.1884 54.0781 47.5577 53.7411 47.8294 53.3304C48.1011 52.9196 48.2668 52.4479 48.3115 51.9575C48.3563 51.467 48.2787 50.9731 48.0859 50.52L43.2032 39.3086C43.2361 39.2834 43.2767 39.2699 43.3086 39.2428C43.733 38.89 44.1786 38.485 44.7315 37.9465C45.2516 37.4129 45.6566 36.9663 45.9998 36.5526C46.2629 36.2409 46.433 35.8615 46.4906 35.4577C46.5482 35.054 46.491 34.6421 46.3256 34.2693L45.4759 32.2809C46.52 30.5769 47.2902 28.7196 47.7582 26.7767L49.7669 25.9744C50.141 25.8249 50.4671 25.5762 50.7104 25.2552C50.9536 24.9341 51.1047 24.5527 51.1473 24.1522C51.2087 23.5145 51.2375 22.874 51.2333 22.2334C51.2375 21.5943 51.2088 20.9555 51.1473 20.3194C51.1047 19.9176 50.9534 19.535 50.7096 19.2128C50.4659 18.8906 50.139 18.6408 49.764 18.4904ZM22.5166 55.4355C22.4479 55.5926 22.3419 55.7305 22.2078 55.8373C22.0736 55.944 21.9154 56.0164 21.7469 56.048C21.5784 56.0797 21.4048 56.0696 21.241 56.0188C21.0773 55.968 20.9285 55.8779 20.8075 55.7564L18.4517 53.4103C18.0121 52.9759 17.4187 52.7327 16.8007 52.7336H12.6537C12.481 52.7345 12.3109 52.692 12.1589 52.6101C12.0069 52.5282 11.8779 52.4095 11.7837 52.2648C11.6875 52.1239 11.6283 51.9611 11.6114 51.7914C11.5945 51.6216 11.6205 51.4504 11.687 51.2933L16.7639 39.614C16.8306 39.5928 16.8983 39.587 16.964 39.5589L18.9525 38.7092C20.6565 39.7532 22.5139 40.5233 24.4567 40.9915L25.259 43.0012C25.4088 43.375 25.6576 43.7009 25.9786 43.9439C26.2996 44.1869 26.6808 44.3379 27.0812 44.3807C27.2233 44.3952 27.377 44.4019 27.5249 44.4126L22.5166 55.4355ZM46.312 51.2788C46.3789 51.4379 46.4054 51.6111 46.389 51.7829C46.3726 51.9548 46.314 52.1199 46.2182 52.2635C46.1225 52.4071 45.9927 52.5248 45.8403 52.606C45.688 52.6872 45.518 52.7294 45.3454 52.7288H41.1993C40.5839 52.7296 39.9936 52.9727 39.556 53.4055L37.1954 55.7564C37.0733 55.8781 36.9232 55.9679 36.7582 56.0181C36.5933 56.0682 36.4185 56.0771 36.2493 56.044C36.0801 56.0109 35.9217 55.9368 35.7878 55.8282C35.6539 55.7195 35.5487 55.5797 35.4815 55.421L30.4809 44.4106C30.625 44.4 30.7709 44.3942 30.914 44.3797C31.3172 44.3383 31.7015 44.1875 32.0252 43.9435C32.3489 43.6995 32.5998 43.3717 32.7507 42.9954L33.552 40.9896C35.4946 40.5215 37.3516 39.7513 39.0553 38.7073L41.0427 39.556C41.1046 39.5831 41.1703 39.5879 41.2361 39.6092L46.312 51.2788ZM49.2227 23.9734C49.214 24.0207 49.1932 24.0649 49.1624 24.1018C49.1315 24.1387 49.0917 24.1671 49.0467 24.1841L46.5701 25.174C46.4227 25.2333 46.292 25.3278 46.1895 25.4493C46.0871 25.5708 46.016 25.7156 45.9824 25.8709C45.5429 27.9353 44.7276 29.9013 43.5773 31.6709C43.4912 31.804 43.439 31.9562 43.4256 32.1142C43.4121 32.2721 43.4376 32.431 43.5 32.5767L44.5488 35.033C44.5705 35.0776 44.5793 35.1273 44.5744 35.1766C44.5694 35.226 44.5509 35.273 44.5208 35.3124C44.2037 35.699 43.8306 36.107 43.3608 36.5835C42.8659 37.0669 42.456 37.44 42.0606 37.7658C42.0213 37.7924 41.9756 37.8081 41.9283 37.8113C41.8809 37.8146 41.8335 37.8052 41.7909 37.7841L39.3433 36.7334C39.1976 36.6713 39.0389 36.646 38.8812 36.6596C38.7234 36.6733 38.5714 36.7255 38.4385 36.8117C36.6689 37.9619 34.7029 38.7772 32.6385 39.2167C32.4832 39.2503 32.3384 39.3214 32.2169 39.4239C32.0954 39.5263 32.0009 39.657 31.9416 39.8045L30.9527 42.2782C30.9349 42.3253 30.9048 42.3669 30.8655 42.3985C30.8263 42.4301 30.7793 42.4507 30.7294 42.458C30.1565 42.5121 29.5812 42.5373 29.0058 42.5334H28.9942C28.4162 42.5367 27.8383 42.5109 27.2629 42.456C27.2156 42.4472 27.1714 42.4264 27.1345 42.3956C27.0976 42.3648 27.0693 42.325 27.0522 42.2801L26.0623 39.8035C26.0035 39.6559 25.9093 39.525 25.7879 39.4225C25.6665 39.32 25.5217 39.249 25.3663 39.2158C23.3018 38.7767 21.3357 37.9614 19.5663 36.8107C19.4097 36.7091 19.2271 36.6551 19.0404 36.6551C18.9085 36.6545 18.7779 36.6812 18.6567 36.7334L16.2004 37.7822C16.1561 37.8045 16.1064 37.8138 16.0571 37.8088C16.0078 37.8038 15.9609 37.7849 15.922 37.7542C15.5353 37.4361 15.1274 37.063 14.6508 36.5942C14.1675 36.1002 13.7963 35.6913 13.4676 35.294C13.441 35.2548 13.4254 35.2092 13.4224 35.162C13.4193 35.1147 13.4289 35.0676 13.4502 35.0253L14.5 32.5767C14.5621 32.431 14.5874 32.2723 14.5737 32.1145C14.5601 31.9568 14.5079 31.8048 14.4217 31.6719C13.2711 29.9023 12.4556 27.9363 12.0157 25.8719C11.9827 25.7164 11.9119 25.5715 11.8095 25.4499C11.7072 25.3284 11.5765 25.2339 11.4289 25.1749L8.95617 24.1831C8.90942 24.1647 8.86827 24.1344 8.83674 24.0952C8.80522 24.0561 8.78442 24.0094 8.77637 23.9598C8.72514 23.4465 8.7 22.882 8.7 22.2334C8.7 21.5847 8.72513 21.0202 8.77733 20.4934C8.78637 20.4463 8.80727 20.4023 8.83806 20.3656C8.86885 20.3289 8.90851 20.3007 8.95327 20.2836L11.4299 19.2937C11.5774 19.2347 11.7082 19.1403 11.8105 19.0187C11.9129 18.8971 11.9837 18.7522 12.0166 18.5968C12.4565 16.5323 13.2721 14.5664 14.4227 12.7968C14.509 12.6636 14.5612 12.5112 14.5747 12.3531C14.5882 12.1949 14.5625 12.0359 14.5 11.89L13.4531 9.43759C13.4313 9.39287 13.4223 9.34296 13.4273 9.29344C13.4322 9.24392 13.4509 9.19676 13.4811 9.15726C13.7992 8.77059 14.1713 8.36362 14.6411 7.88609C15.1351 7.40276 15.545 7.03156 15.9423 6.70386C15.9811 6.67689 16.0266 6.66102 16.0737 6.65795C16.1209 6.65488 16.168 6.66474 16.21 6.68646L18.6567 7.73336C18.8025 7.79558 18.9614 7.82099 19.1193 7.80733C19.2773 7.79368 19.4295 7.74139 19.5624 7.65506C21.3318 6.5043 23.2979 5.68904 25.3624 5.24999C25.5178 5.21677 25.6626 5.14576 25.784 5.04325C25.9054 4.94074 25.9997 4.80988 26.0584 4.66226L27.0464 2.18952C27.0643 2.14214 27.0945 2.1004 27.1339 2.06862C27.1733 2.03684 27.2205 2.01617 27.2706 2.00876C28.4226 1.90629 29.5813 1.90629 30.7332 2.00876C30.7805 2.01746 30.8248 2.03823 30.8617 2.06905C30.8986 2.09987 30.927 2.13971 30.944 2.18469L31.9338 4.66129C31.9931 4.80875 32.0877 4.93943 32.2092 5.04189C32.3307 5.14435 32.4754 5.21547 32.6308 5.24902C34.6952 5.68857 36.6612 6.50381 38.4308 7.65409C38.5645 7.74172 38.7178 7.79483 38.8771 7.80867C39.0363 7.8225 39.1965 7.79663 39.3433 7.73336L41.7996 6.68452C41.8442 6.66288 41.894 6.65404 41.9433 6.65899C41.9926 6.66394 42.0396 6.68248 42.079 6.71256C42.4657 7.02962 42.8736 7.40276 43.3502 7.87256C43.8335 8.36749 44.2066 8.77736 44.5324 9.17272C44.5595 9.21185 44.5755 9.25757 44.5787 9.30504C44.582 9.35252 44.5723 9.39999 44.5508 9.44242L43.5 11.89C43.4379 12.0357 43.4126 12.1944 43.4263 12.3522C43.4399 12.51 43.4921 12.662 43.5783 12.7948C44.7286 14.5645 45.5438 16.5305 45.9834 18.5948C46.0169 18.7502 46.088 18.8949 46.1905 19.0165C46.293 19.138 46.4236 19.2325 46.5711 19.2918L49.0448 20.2807C49.0904 20.2975 49.1309 20.3258 49.1622 20.3629C49.1936 20.4 49.2147 20.4446 49.2236 20.4924V20.504C49.2786 21.0788 49.3041 21.656 49.3 22.2334C49.304 22.8143 49.2782 23.3951 49.2227 23.9734Z" fill="white"/>
</g>
<defs>
<clipPath id="clip0_1_240">
<rect width="58" height="58" fill="white"/>
</clipPath>
</defs>
</svg>
