<svg width="67" height="66" viewBox="0 0 67 66" fill="none" xmlns="http://www.w3.org/2000/svg">
<path d="M51.1636 41.6529C50.9287 41.6529 50.6981 41.5672 50.5197 41.3872L44.0112 34.9758C43.6544 34.6243 43.6544 34.0543 44.0112 33.7029C44.3679 33.3515 44.9465 33.3515 45.3033 33.7029L51.8119 40.1143C52.1686 40.4658 52.1686 41.0358 51.8119 41.3872C51.6335 41.5629 51.3986 41.6529 51.1636 41.6529Z" fill="white"/>
<path d="M43.2933 56.1386C40.1217 56.1386 37.0458 55.5257 34.1483 54.3215C31.3508 53.1557 28.8405 51.4886 26.6825 49.3629C24.5246 47.2372 22.8322 44.7643 21.6488 42.0086C20.422 39.1543 19.8042 36.1243 19.8042 33C19.8042 29.8757 20.4263 26.8457 21.6488 23.9914C22.8322 21.2357 24.5246 18.7629 26.6825 16.6372C28.8405 14.5115 31.3508 12.8443 34.1483 11.6786C37.0458 10.47 40.1217 9.86145 43.2933 9.86145C46.4649 9.86145 49.5409 10.4743 52.4384 11.6786C55.2359 12.8443 57.7462 14.5115 59.9041 16.6372C62.062 18.7629 63.7544 21.2357 64.9378 23.9914C66.1647 26.8457 66.7825 29.8757 66.7825 33C66.7825 36.1243 66.1603 39.1543 64.9378 42.0086C63.7544 44.7643 62.062 47.2372 59.9041 49.3629C57.7462 51.4886 55.2359 53.1557 52.4384 54.3215C49.5409 55.5257 46.4649 56.1386 43.2933 56.1386ZM43.2933 11.6615C31.3508 11.6615 21.6314 21.2315 21.6314 33C21.6314 44.7643 31.3464 54.3386 43.2933 54.3386C55.2359 54.3386 64.9552 44.7686 64.9552 33C64.9552 21.2357 55.2402 11.6615 43.2933 11.6615Z" fill="white"/>
<path d="M26.8696 18.6429H13.3913C12.8866 18.6429 12.4777 18.24 12.4777 17.7429C12.4777 17.2458 12.8866 16.8429 13.3913 16.8429H26.8696C27.3743 16.8429 27.7832 17.2458 27.7832 17.7429C27.7832 18.24 27.3743 18.6429 26.8696 18.6429Z" fill="white"/>
<path d="M22.0839 26.2714H7.52228C7.0176 26.2714 6.60864 25.8686 6.60864 25.3714C6.60864 24.8743 7.0176 24.4714 7.52228 24.4714H22.0839C22.5886 24.4714 22.9975 24.8743 22.9975 25.3714C22.9975 25.8686 22.5886 26.2714 22.0839 26.2714Z" fill="white"/>
<path d="M20.7178 33.9001H8.94058C8.43591 33.9001 8.02695 33.4972 8.02695 33.0001C8.02695 32.503 8.43591 32.1001 8.94058 32.1001H20.7221C21.2268 32.1001 21.6358 32.503 21.6358 33.0001C21.6358 33.4972 21.2225 33.9001 20.7178 33.9001Z" fill="white"/>
<path d="M4.35935 33.9001H1.13117C0.62649 33.9001 0.217529 33.4972 0.217529 33.0001C0.217529 32.503 0.62649 32.1001 1.13117 32.1001H4.35935C4.86402 32.1001 5.27298 32.503 5.27298 33.0001C5.27298 33.4972 4.86402 33.9001 4.35935 33.9001Z" fill="white"/>
<path d="M22.0839 41.5286H7.52228C7.0176 41.5286 6.60864 41.1258 6.60864 40.6286C6.60864 40.1315 7.0176 39.7286 7.52228 39.7286H22.0839C22.5886 39.7286 22.9975 40.1315 22.9975 40.6286C22.9975 41.1258 22.5886 41.5286 22.0839 41.5286Z" fill="white"/>
<path d="M26.8696 49.1572H13.3913C12.8866 49.1572 12.4777 48.7543 12.4777 48.2572C12.4777 47.76 12.8866 47.3572 13.3913 47.3572H26.8696C27.3743 47.3572 27.7832 47.76 27.7832 48.2572C27.7832 48.7543 27.3743 49.1572 26.8696 49.1572Z" fill="white"/>
<path d="M43.2933 52.2C40.6612 52.2 38.1117 51.6943 35.7058 50.6915C33.3869 49.7229 31.2986 48.3386 29.5105 46.5772C27.7223 44.8158 26.3171 42.7629 25.3338 40.4743C24.3158 38.1086 23.8024 35.5929 23.8024 33C23.8024 30.4072 24.3158 27.8958 25.3338 25.5258C26.3171 23.2415 27.7223 21.1843 29.5105 19.4229C31.2986 17.6615 33.3825 16.2772 35.7058 15.3086C38.1073 14.3058 40.6612 13.8 43.2933 13.8C45.9255 13.8 48.4749 14.3058 50.8808 15.3086C53.1997 16.2772 55.2881 17.6615 57.0762 19.4229C58.8643 21.1843 60.2695 23.2372 61.2528 25.5258C62.2708 27.8915 62.7842 30.4072 62.7842 33C62.7842 35.5929 62.2708 38.1043 61.2528 40.4743C60.2695 42.7586 58.8643 44.8158 57.0762 46.5772C55.2881 48.3386 53.2041 49.7229 50.8808 50.6915C48.4793 51.69 45.9255 52.2 43.2933 52.2ZM43.2933 15.6C33.5566 15.6 25.6297 23.4043 25.6297 33C25.6297 42.5958 33.5522 50.4 43.2933 50.4C53.0344 50.4 60.9569 42.5958 60.9569 33C60.9569 23.4043 53.0344 15.6 43.2933 15.6Z" fill="white"/>
<path d="M43.2933 35.7686C41.7445 35.7686 40.4828 34.5257 40.4828 33C40.4828 31.4743 41.7445 30.2314 43.2933 30.2314C44.8421 30.2314 46.1038 31.4743 46.1038 33C46.1082 34.5257 44.8465 35.7686 43.2933 35.7686ZM43.2933 32.0314C42.7495 32.0314 42.3101 32.4686 42.3101 33C42.3101 33.5314 42.7538 33.9686 43.2933 33.9686C43.8328 33.9686 44.2766 33.5314 44.2766 33C44.2766 32.4686 43.8371 32.0314 43.2933 32.0314Z" fill="white"/>
<path d="M43.2933 32.0443C42.7886 32.0443 42.3797 31.6414 42.3797 31.1443V24.0643C42.3797 23.5672 42.7886 23.1643 43.2933 23.1643C43.798 23.1643 44.2069 23.5672 44.2069 24.0643V31.1443C44.2069 31.6414 43.798 32.0443 43.2933 32.0443Z" fill="white"/>
<path d="M43.2933 18.3772C42.7886 18.3772 42.3797 17.9743 42.3797 17.4772V14.7C42.3797 14.2029 42.7886 13.8 43.2933 13.8C43.798 13.8 44.2069 14.2029 44.2069 14.7V17.4772C44.2069 17.9743 43.798 18.3772 43.2933 18.3772Z" fill="white"/>
<path d="M32.1513 22.9243C31.9164 22.9243 31.6858 22.8386 31.5074 22.6586L29.5148 20.6957C29.1581 20.3443 29.1581 19.7743 29.5148 19.4229C29.8716 19.0714 30.4502 19.0714 30.807 19.4229L32.7996 21.3857C33.1563 21.7372 33.1563 22.3072 32.7996 22.6586C32.6212 22.8386 32.3862 22.9243 32.1513 22.9243Z" fill="white"/>
<path d="M27.5396 33.9001H24.7204C24.2157 33.9001 23.8068 33.4972 23.8068 33.0001C23.8068 32.503 24.2157 32.1001 24.7204 32.1001H27.5396C28.0443 32.1001 28.4533 32.503 28.4533 33.0001C28.4533 33.4972 28.0443 33.9001 27.5396 33.9001Z" fill="white"/>
<path d="M30.1587 46.8386C29.9238 46.8386 29.6932 46.7529 29.5148 46.5729C29.1581 46.2215 29.1581 45.6515 29.5148 45.3L31.5074 43.3372C31.8642 42.9858 32.4428 42.9858 32.7996 43.3372C33.1563 43.6886 33.1563 44.2586 32.7996 44.61L30.807 46.5729C30.6286 46.7529 30.3936 46.8386 30.1587 46.8386Z" fill="white"/>
<path d="M56.4279 46.8386C56.193 46.8386 55.9624 46.7529 55.784 46.5729L53.7914 44.61C53.4347 44.2586 53.4347 43.6886 53.7914 43.3372C54.1482 42.9858 54.7268 42.9858 55.0836 43.3372L57.0762 45.3C57.4329 45.6515 57.4329 46.2215 57.0762 46.5729C56.8978 46.7529 56.6629 46.8386 56.4279 46.8386Z" fill="white"/>
<path d="M61.8706 33.9001H59.0514C58.5467 33.9001 58.1377 33.4972 58.1377 33.0001C58.1377 32.503 58.5467 32.1001 59.0514 32.1001H61.8706C62.3753 32.1001 62.7842 32.503 62.7842 33.0001C62.7842 33.4972 62.3753 33.9001 61.8706 33.9001Z" fill="white"/>
<path d="M54.4353 22.9243C54.2004 22.9243 53.9698 22.8343 53.7914 22.6586C53.4347 22.3072 53.4347 21.7372 53.7914 21.3857L55.784 19.4229C56.1408 19.0714 56.7194 19.0714 57.0762 19.4229C57.4329 19.7743 57.4329 20.3443 57.0762 20.6957L55.0836 22.6586C54.9052 22.8386 54.6703 22.9243 54.4353 22.9243Z" fill="white"/>
</svg>
