<svg width="32" height="32" viewBox="0 0 32 32" fill="none" xmlns="http://www.w3.org/2000/svg">
<rect x="0.25" y="0.25" width="31.5" height="31.502" rx="15.75" stroke="black" stroke-width="0.5"/>
<path d="M21.8758 9.5582C21.479 9.19257 19.8727 8.02695 16.2915 8.01132C16.2915 8.01132 12.0696 7.7582 10.0133 9.6457C8.8696 10.7894 8.46647 12.4676 8.42272 14.5457C8.37897 16.6238 8.32585 20.5176 12.079 21.5738H12.0821L12.079 23.1863C12.079 23.1863 12.054 23.8394 12.4852 23.9707C13.004 24.1332 13.3102 23.6363 13.8071 23.1019C14.079 22.8082 14.454 22.3769 14.7383 22.0488C17.3071 22.2644 19.279 21.7707 19.504 21.6988C20.0227 21.5301 22.9571 21.1551 23.4321 17.2613C23.9258 13.2426 23.1946 10.7051 21.8758 9.5582ZM22.3102 16.9676C21.9071 20.2176 19.529 20.4238 19.0915 20.5644C18.904 20.6238 17.1696 21.0551 14.9915 20.9144C14.9915 20.9144 13.3665 22.8738 12.8602 23.3832C12.6946 23.5488 12.5133 23.5332 12.5165 23.2051C12.5165 22.9894 12.529 20.5269 12.529 20.5269C12.5258 20.5269 12.5258 20.5269 12.529 20.5269C9.34772 19.6457 9.53522 16.3301 9.5696 14.5957C9.60397 12.8613 9.9321 11.4394 10.9008 10.4832C12.6415 8.90507 16.2258 9.13945 16.2258 9.13945C19.254 9.15195 20.704 10.0644 21.0415 10.3707C22.1571 11.3269 22.7258 13.6144 22.3102 16.9676ZM17.9665 14.4426C17.979 14.7113 17.5758 14.7301 17.5633 14.4613C17.529 13.7738 17.2071 13.4394 16.5446 13.4019C16.2758 13.3863 16.3008 12.9832 16.5665 12.9988C17.4383 13.0457 17.9227 13.5457 17.9665 14.4426ZM18.6008 14.7957C18.6321 13.4707 17.804 12.4332 16.2321 12.3176C15.9665 12.2988 15.9946 11.8957 16.2602 11.9144C18.0727 12.0457 19.0383 13.2926 19.004 14.8051C19.0008 15.0738 18.5946 15.0613 18.6008 14.7957ZM20.0696 15.2144C20.0727 15.4832 19.6665 15.4863 19.6665 15.2176C19.6477 12.6707 17.9508 11.2832 15.8915 11.2676C15.6258 11.2644 15.6258 10.8644 15.8915 10.8644C18.1946 10.8801 20.0477 12.4707 20.0696 15.2144ZM19.7165 18.2801V18.2863C19.379 18.8801 18.7477 19.5363 18.0977 19.3269L18.0915 19.3176C17.4321 19.1332 15.879 18.3332 14.8977 17.5519C14.3915 17.1519 13.929 16.6801 13.5727 16.2269C13.2508 15.8238 12.9258 15.3457 12.6102 14.7707C11.9446 13.5676 11.7977 13.0301 11.7977 13.0301C11.5883 12.3801 12.2415 11.7488 12.8383 11.4113H12.8446C13.1321 11.2613 13.4071 11.3113 13.5915 11.5332C13.5915 11.5332 13.979 11.9957 14.1446 12.2238C14.3008 12.4363 14.5102 12.7769 14.6196 12.9676C14.8102 13.3082 14.6915 13.6551 14.504 13.7988L14.129 14.0988C13.9383 14.2519 13.9633 14.5363 13.9633 14.5363C13.9633 14.5363 14.5196 16.6394 16.5977 17.1707C16.5977 17.1707 16.8821 17.1957 17.0352 17.0051L17.3352 16.6301C17.479 16.4426 17.8258 16.3238 18.1665 16.5144C18.6258 16.7738 19.2102 17.1769 19.5977 17.5426C19.8165 17.7207 19.8665 17.9926 19.7165 18.2801Z" fill="black"/>
</svg>
